<?xml version="1.0" encoding="UTF-8"?>
<svg id="Capa_1" xmlns="http://www.w3.org/2000/svg" version="1.1" viewBox="0 0 419.53 419.53">
  <!-- Generator: Adobe Illustrator 30.0.0, SVG Export Plug-In . SVG Version: 2.1.1 Build 123)  -->
  <defs>
    <style>
      .st0 {
        fill: #98cab4;
      }

      .st1 {
        fill: #0d4c56;
      }

      .st2 {
        fill: #fefefe;
      }
    </style>
  </defs>
  <path class="st0" d="M276.81,76.02c31.87,16.76,56.66,45.32,69.57,79.24,1.63,4.29,6.96,14.41,1.15,16.78-4.04,1.65-5.23-2.14-8.2-4-10.53-6.61-27.73-3.57-39.67-4.31-20.94-1.29-41.08-11.07-54.1-27.49-8.06-10.16-14.44-25.22-25.29-32.72-5.57-3.84-5.97-3.28-11.61.39-3.48,2.26-9.07,9.45-13.17,5.91-4.45-3.84,2.09-8.33,4.88-10.38,23.26-17.05,54.85-19.11,81.78-10.32l-10.82-6.7c-23.99-14.35-52.28-13.97-73.96,4.47-22.79,19.38-19.39,51.54-49.26,66.11-24.75,12.07-44.27-1.78-66.91,7.02-3.28,1.27-6.73,5.27-10.28,2.98-3.96-2.56-1.28-8.04-.05-11.4,8.95-24.47,28.39-48.27,49.19-63.63,43.78-32.35,108.59-37.28,156.74-11.95ZM215.88,67.47c-9.16.1-21.69-.3-29.97,4.12-30.8,16.4-25.52,62.24-64.01,64.74-10.58.69-20.7-3.02-31.14-3.76-2.16.74-9.46,15.98-10.62,19.03,3.71-.87,7.42-1.98,11.23-2.47,17.3-2.2,31.65,4.93,49.01-1.98,28.17-11.21,26.05-38.6,43.32-58.66,4.78-5.55,10.76-10.4,16.95-14.28l15.24-6.74ZM170.63,72.57c-15.97,5.25-32.49,10.98-45.25,22.3,10.62-3.46,21.2-5.35,32.38-5.86,3.22-6.27,8.15-11.31,12.87-16.44ZM324.24,131.19c-5.42-10.24-14.33-19.97-22.94-27.73-1.43-1.29-11.18-9.61-11.93-9.8-1.79-.48-2.81,2.28-4.62,2.84-5.35,1.66-14.94-2.57-20.85-3.44-4.55-.67-8.99-.95-13.6-.73l12.86,19.96c6.14,8.77,11.6,14.29,21.39,18.13,12.96,5.09,26.39,3.8,39.69.78ZM329.23,138.29c-24.65,6.6-50.11,5.61-67.79-14.74-5.64-6.49-9.51-14.28-14.45-21.24-.96-1.35-6.2-8.61-6.89-9.04-2.75-1.68-11.82,2.42-15.29,2.23-.24,1.06.34,1.29.97,1.9,2.56,2.49,5.47,4.5,7.94,7.36,13.26,15.39,17.1,30.92,36.56,41.84,21.17,11.88,33.02,6.87,54.91,8.82,4.69.42,9.07,2.57,13.71,3.17l-9.66-20.31ZM152.78,96.78c-11.89,1.96-25.5,3.36-36.55,8.38-8.41,3.81-15.38,12.4-20.8,19.66,13.04,2.6,29.45,6.75,41.11-1.91,6.21-4.61,13.09-16.51,15.75-23.77.29-.8.69-1.44.5-2.36Z"/>
  <path class="st0" d="M168.49,288.22c9.68,11.49,14.26,24.83,27.43,34.08,6.77,4.75,7.13,5.11,14.17.38,25.92-17.44,29.33-49.14,64.93-58.72,20.78-5.59,40.81,5.27,60.23-3.51,3.63-1.64,6.55-6.31,10.64-3.35,3.27,2.36,1.53,5.77.5,8.75-9.5,27.6-33.2,54.9-57.52,70.59-15.39,9.94-43.44,21.21-61.83,19.74-2.64-.21-4.7-1.51-7.64-1.29-5.16.38-12.01,3.98-18.5,4.47-51.39,3.88-107.53-38.66-127.26-84.33-1.56-3.61-6.31-14.12-4.28-17.26,3.43-5.33,7.59.73,10.32,2.3,9.3,5.32,26.89,2.34,37.73,3.07,19.38,1.29,38.58,10.22,51.09,25.08ZM193.57,330.07c-18.37-8.79-23.39-30.86-37.94-43.33-8.77-7.52-21.24-12.8-32.66-14.5-14.38-2.14-29.01,1.42-42.84-3.36l1.02,3.76,8.33,14.64c19.43-3.2,37.74-4.39,54.85,6.96,13.76,9.13,19.3,26.9,29.49,39.35,1.97.97,15.67-1.61,18.48-2.57.61-.21,1.46-.08,1.27-.93ZM154.06,342.16c26.41,10.22,52.44,14.97,75.54-5.07,20.83-18.07,26.81-50.36,58.59-52.31,12.13-.74,23.81,3.04,35.61,5.05,5.04-6.18,8.54-13.44,11.89-20.64-16.54,7.6-34.27.09-51.29,1.61-34.64,3.09-42.24,38.09-65.67,56.07-20.47,15.7-38.09,14.91-62.44,14.65-.73,0-2.41-.42-2.24.65ZM164.25,333.88c-9.02-11.47-13.17-25.98-26.34-33.88-8.01-4.81-16.36-6.34-25.6-6.96l-17.53,1.97c8.12,11.96,19.28,22.67,31.03,31.11,3.65,2.62,11.83,8.36,15.68,9.82,3.39,1.29,3.53-.87,6.04-1.89,5.35-2.17,11.16.56,16.72-.17ZM318.5,297.56c-10.83-2.45-22.1-5.8-33.27-3.64-9.61,1.85-18.05,8.03-23.6,15.91l-6.86,11.3c12.79,1.95,26.6-.1,38.85-4.16,11.27-3.74,18.2-9.78,24.88-19.41ZM287.27,326.88c-12.78,3.4-25.39,3.83-38.43,1.89-5.19,7.16-11.95,13.01-18.3,19.13,20.18-1.02,40.41-9.37,56.73-21.02ZM153.1,340.9v.64c.41-.21.41-.42,0-.64Z"/>
  <path class="st1" d="M224.17,239.23c-1.16,5.84-10.67,7.16-12.69-.07-.5-1.79-.64-6.68-.73-8.82-.55-13-1.08-31.96,0-44.66.62-7.21,5.35-11.59,12.16-7.65,10.88,13.26,20.33,27.75,30.25,41.77,1.22-8.52,1.1-17.21.98-25.84-.06-4.71-2.69-14.02,2.99-16.71,4.66-2.21,9.32,1,9.76,5.88,1.56,16.98-1.22,36.33-.03,53.57-1.29,7.82-8.15,9.96-13.71,4.15-9.9-10.35-17.97-27.49-27.46-38.83-.42-.5-.84-1.26-1.54-1.33v38.56Z"/>
  <path class="st1" d="M61.64,189.2v15.3h25.18c1.59,0,3.51,3.82,3.53,5.4.02,1.97-2.26,6.07-4.17,6.07h-24.54v14.98c0,.07.89.96.96.96h28.68c.39,0,2.5,1.69,2.88,2.21,2.59,3.56.3,8.76-4.14,9.27-10.92,1.27-24.38-.86-35.57-.15-4.02-1.34-5.85-5.06-6.22-9.08-1.39-15.41,1.11-32.86,0-48.49.33-6.3,4.97-8.11,10.55-8.57,7.04-.58,14.11.54,21.02.68,4.22.09,14.47-2.99,14.96,4.77.15,2.36-2.41,6.65-4.76,6.65h-28.36Z"/>
  <path class="st1" d="M287.91,223.62c1.25,9.21,13.46,11.63,20.83,8.4,1.5-.66,2.74-2.34,4.37-2.64,7.68-1.43,10.38,6.29,3.28,10.93-15.77,10.3-39.63,2.05-41.79-17.73-3.71-33.88,42.11-39.89,48.81-11.21.93,3.99,2.1,8.46-1.74,11.28l-33.77.97ZM311.49,214.7c-1.54-15.02-22.46-14.44-24.22,0h24.22Z"/>
  <path class="st1" d="M173.04,193.2c35.89-4.16,40.35,48.03,6.75,51.37-35.72,3.55-40.1-47.5-6.75-51.37ZM174.94,204.62c-16.82,2-15.56,31.18,4.89,27.89,14.7-2.36,12.97-30.01-4.89-27.89Z"/>
  <path class="st1" d="M349.1,208.96c.85.59,9.34-13.62,12.26-14.81,5.5-2.24,10.98,1.95,9.05,7.78l-12.87,16.27c-.13,1.58,12.1,14.42,13.54,17.54,3.06,6.63-5.42,11.37-11.12,6.65-2.21-1.83-9.67-14.32-10.56-14.29-3.91,4.38-9.56,17.22-16.4,16.44-15.34-4.74,5.36-18.77,8.22-26.33-1.6-4.51-13.19-15.24-13.1-19.13.1-4.19,4.84-5.97,8.5-5.36,4.38.72,10.14,11.39,12.47,15.26Z"/>
  <path class="st1" d="M122.05,193.2c6.78-.81,18.19,1.29,22.1,7.5,2.67,4.24-.27,8.33-4.72,9.26-4.21.88-3.33-1.03-5.81-2.55-17.03-10.48-29.63,14.44-15.06,23.35,4.23,2.59,9.99,2.56,14.28,0,3.81-2.27,3.42-5.66,9.36-3.25,5.01,2.03,4.52,7.76,1.04,11.11-6.09,5.87-17.03,7.04-24.88,5.08-27.26-6.81-25.02-47.08,3.69-50.5Z"/>
  <path class="st2" d="M153.1,340.9c.41.21.41.42,0,.64v-.64Z"/>
</svg>